<svg xmlns="http://www.w3.org/2000/svg" width="146.343" height="106.429" viewBox="0 0 146.343 106.429">
  <path id="Icon_awesome-readme" data-name="Icon awesome-readme" d="M134.224,3.27H98.705A26.123,26.123,0,0,0,73.2,23.671,26.144,26.144,0,0,0,47.688,3.27H12.2A12.2,12.2,0,0,0,0,15.465v62.45a12.2,12.2,0,0,0,12.2,12.2h22.79c25.966,0,33.715,6.2,37.424,19.055a.811.811,0,0,0,1.524,0C77.668,96.309,85.417,90.11,111.358,90.11h22.79a12.2,12.2,0,0,0,12.2-12.2V15.49A12.221,12.221,0,0,0,134.224,3.27ZM61.484,70.7a.884.884,0,0,1-.889.889H19.868a.884.884,0,0,1-.889-.889V64.881a.884.884,0,0,1,.889-.889H60.62a.884.884,0,0,1,.889.889V70.7Zm0-15.473a.884.884,0,0,1-.889.889H19.868a.884.884,0,0,1-.889-.889V49.408a.884.884,0,0,1,.889-.889H60.62a.884.884,0,0,1,.889.889v5.818Zm0-15.473a.884.884,0,0,1-.889.889H19.868a.884.884,0,0,1-.889-.889V33.935a.884.884,0,0,1,.889-.889H60.62a.884.884,0,0,1,.889.889v5.818Zm65.88,30.92a.884.884,0,0,1-.889.889H85.748a.884.884,0,0,1-.889-.889V64.855a.884.884,0,0,1,.889-.889H126.5a.884.884,0,0,1,.889.889v5.818Zm0-15.473a.884.884,0,0,1-.889.889H85.748a.884.884,0,0,1-.889-.889V49.383a.884.884,0,0,1,.889-.889H126.5a.884.884,0,0,1,.889.889V55.2Zm0-15.473a.884.884,0,0,1-.889.889H85.748a.884.884,0,0,1-.889-.889V33.935a.884.884,0,0,1,.889-.889H126.5a.884.884,0,0,1,.889.889v5.793Z" transform="translate(0 -3.27)" fill="#fb4c52"/>
</svg>
